<?xml version="1.0" encoding="UTF-8"?> <svg xmlns="http://www.w3.org/2000/svg" width="81.07mm" height="35.17mm" viewBox="0 0 229.79 99.7"><defs><style>.cls-1{fill:#1e3878;}.cls-2{fill:#c61938;}</style></defs><title>Asset 16</title><g id="Layer_2" data-name="Layer 2"><g id="Layer_1-2" data-name="Layer 1"><rect class="cls-1" x="74" width="20.8" height="20.79"></rect><path class="cls-2" d="M45.75,30.53H64.51V49.3H45.75ZM0,94.83H71.34V23.49H0Z"></path><path class="cls-1" d="M101.77,34.69c-.23-2.79-2.5-3.53-5.14-3.53S92,32.19,92,34.05c0,2.13,2,2.64,6,3.3,3,.5,6,1.19,6,4.33,0,4-3.64,5.11-6.82,5.11-4.15,0-7.18-1.42-7.43-5.82h1.7c.3,3.44,2.59,4.26,5.73,4.26,2.45,0,5-.66,5-3.25s-3-2.8-6-3.28c-3.89-.62-6-1.72-6-4.35,0-3.58,3.3-4.75,6.46-4.75,3.35,0,6.72,1.2,6.83,5.09Z"></path><path class="cls-1" d="M106,30h13v1.56H107.73v5.54h10.9v1.56h-10.9v6.14h11.5v1.56H106Z"></path><path class="cls-1" d="M126.08,31.58h-6.42V30h14.53v1.56h-6.41v14.8h-1.7Z"></path><path class="cls-1" d="M142.4,38c-.44-1.92-1.63-2.47-4.11-2.47-1.78,0-3.43.39-3.43,2,0,1.23.8,1.49,4.42,2s5.16,1.12,5.16,3.43-1.93,3.78-5.66,3.78-6-1.23-6-4.1h1.56c.29,2,1.42,2.68,4.47,2.68,2.36,0,4-.48,4-2.26,0-1.2-.85-1.72-4.56-2.09s-5-1.24-5-3.35,1.67-3.52,5.13-3.52c3.88,0,5.46,1.39,5.66,3.89Z"></path><path class="cls-1" d="M157,34.46h1.69V51H157V44H157a5.44,5.44,0,0,1-4.86,2.75c-4.44,0-6.48-3-6.48-6.32A6.1,6.1,0,0,1,152,34.1c2.94,0,4.59,1.65,5,2.75H157Zm-4.91,1.06c-3.46,0-4.79,2.52-4.79,4.9a4.9,4.9,0,1,0,9.79,0A4.67,4.67,0,0,0,152.11,35.52Z"></path><path class="cls-1" d="M171.22,44h0a5.23,5.23,0,0,1-4.93,2.7c-4,0-5.16-2.06-5.16-4.9V34.46h1.7v7.68c0,2.36,1.44,3.18,3.6,3.18,3.32,0,4.83-1.69,4.83-4.4V34.46h1.7V46.38h-1.7Z"></path><path class="cls-1" d="M175.21,38.13c.25-2.5,1.6-4,5.68-4s5.46,1.23,5.46,3.52v6.24c0,1,.27,1.33.94,1.33.29,0,.59,0,.89,0v1.15a7.07,7.07,0,0,1-1.42.18c-1.72,0-1.81-1.17-1.83-2.11h-.05c-.53.78-1.67,2.38-5.57,2.38-2,0-4.63-.89-4.63-3.57,0-3.23,3.33-3.6,5.94-3.74,3.71-.2,4.17-.41,4.17-1.58,0-1.72-1.15-2.33-3.94-2.33s-4,.71-4.08,2.61ZM184.79,40c-.76.48-1.9.57-5.3.9-2,.18-3.11.77-3.11,2.2,0,1.85,1.6,2.4,3.44,2.4,2.29,0,5-1.24,5-3.69Z"></path><path class="cls-1" d="M189.07,34.46h1.7v2.73h0a4.59,4.59,0,0,1,4.56-3.09,4.69,4.69,0,0,1,1,.09v1.74a9,9,0,0,0-1.56-.14c-1.83,0-4,1.12-4,4.52v6.07h-1.7Z"></path><path class="cls-1" d="M209.81,42.57c-.69,2.11-2.47,4.17-6.42,4.17-4.88,0-6.48-3.41-6.48-6.32,0-3.32,2-6.32,6.48-6.32,3.08,0,6.72,1.32,6.72,6.73h-11.5a4.42,4.42,0,0,0,4.78,4.49c2.85,0,4.13-.94,4.72-2.75Zm-1.4-3a5,5,0,0,0-9.8,0Z"></path><path class="cls-1" d="M222.92,44h0A5.2,5.2,0,0,1,218,46.74c-4.88,0-6.48-3.41-6.48-6.32,0-3.32,2-6.32,6.48-6.32a5.42,5.42,0,0,1,4.86,2.75h0v-7h1.69v16.5h-1.69ZM218,35.52a4.64,4.64,0,0,0-4.79,4.9c0,2.38,1.33,4.9,4.79,4.9a4.67,4.67,0,0,0,5-4.9A4.68,4.68,0,0,0,218,35.52Z"></path><path class="cls-2" d="M101.79,58.9c-.27-2.13-2.31-2.36-4.1-2.36s-3,.83-3,1.93c0,.87.74,1.35,1.88,1.53l5.57.9c3,.48,5.25,1.6,5.25,4.58S105.3,71,98.86,71c-4,0-9.17-.51-9.21-5.62h5c0,2.25,2.29,2.64,4.22,2.64,2.08,0,3.5-.62,3.5-2,0-1.26-1-1.6-2.77-1.88l-4-.62c-2.85-.43-5.6-1.28-5.6-4.63,0-3.64,3-5.13,8.12-5.13,3.36,0,8.36.57,8.66,5.2Z"></path><path class="cls-2" d="M123,60.35c-.42-2.36-2.36-3.53-4.68-3.53-4.21,0-5.11,3.3-5.11,5.52s.9,5.52,5.11,5.52c2.16,0,4.24-1,4.68-3.62h4.83C127.27,69,123.35,71,118.15,71c-6,0-9.67-2.57-9.67-8.64s3.71-8.64,9.67-8.64c3.94,0,9,1,9.63,6.65Z"></path><path class="cls-2" d="M141.48,67.15H134l-1.33,3.37h-4.79L135,54.16h5.36l7.2,16.36h-4.79Zm-3.76-9.46-2.57,6.48h5.14Z"></path><path class="cls-2" d="M148.61,54.16h4.44V67.27h10v3.25H148.61Z"></path><path class="cls-2" d="M164.92,54.16H180.2v3.12H169.37v3.39h10.28v3H169.37V67.4H180.3v3.12H164.92Z"></path><path class="cls-2" d="M182.38,62.41h8.18v3.11h-8.18Z"></path><path class="cls-2" d="M193.13,54.16h4.44v9.39c0,1.61.07,4.31,4.15,4.31s4.15-2.7,4.15-4.31V54.16h4.44V64.65c0,1.84-.22,6.33-8.59,6.33s-8.59-4.49-8.59-6.33Z"></path><path class="cls-2" d="M213,54.16h11c4.65,0,5.77,2.77,5.77,5,0,3.48-1.83,5.55-5.43,5.55h-6.9v5.84H213Zm4.44,7.54h4.77c1.37,0,3-.05,3-2.25s-1.31-2.31-2.57-2.31h-5.18Z"></path><path class="cls-1" d="M91,78.3h8.82c2.52,0,4.93,1.26,4.93,4.72,0,3.1-2,4.77-5.68,4.77H92.65v6.87H91Zm1.7,7.93H99.2c2.84,0,3.67-1.31,3.67-3.21,0-2.45-1.38-3.16-3.32-3.16h-6.9Z"></path><path class="cls-1" d="M106.37,82.75h1.7v2.72h.05a4.57,4.57,0,0,1,4.56-3.09,5.41,5.41,0,0,1,1,.09v1.74a9,9,0,0,0-1.55-.13c-1.84,0-4.06,1.12-4.06,4.51v6.07h-1.7Z"></path><path class="cls-1" d="M121,82.38c4.58,0,6.76,3,6.76,6.32S125.55,95,121,95s-6.76-3-6.76-6.33S116.39,82.38,121,82.38Zm0,11.23c3.21,0,5.06-2,5.06-4.91s-1.85-4.9-5.06-4.9-5.06,2-5.06,4.9S117.76,93.61,121,93.61Z"></path><path class="cls-1" d="M140.72,82.75h1.7V94.2c0,4.4-3.55,5.5-6.69,5.5-5.43,0-6-2.59-6.1-3.87h1.56c.25,1.28.6,2.59,4.61,2.59,3.11,0,4.92-1.47,4.92-4.33V92h0c-.64,1.21-2.2,2.7-5.27,2.7s-6.33-1.56-6.33-6.21c0-3.16,2-6.07,6.51-6.07,2.31,0,4.28.87,5.09,2.68h0Zm-5,1c-3,0-4.9,1.72-4.9,4.65,0,3.49,2.17,4.79,5,4.79a4.61,4.61,0,0,0,5-4.79C140.77,86,139.05,83.8,135.68,83.8Z"></path><path class="cls-1" d="M144.76,82.75h1.69v2.72h.05a4.58,4.58,0,0,1,4.56-3.09,5.64,5.64,0,0,1,1,.09v1.74a9.21,9.21,0,0,0-1.56-.13c-1.84,0-4.06,1.12-4.06,4.51v6.07h-1.69Z"></path><path class="cls-1" d="M152.91,86.41c.26-2.49,1.61-4,5.69-4s5.45,1.24,5.45,3.53v6.23c0,1,.27,1.33.94,1.33.3,0,.59,0,.89,0v1.14a7.07,7.07,0,0,1-1.42.18c-1.72,0-1.81-1.16-1.83-2.1h0c-.52.78-1.67,2.38-5.57,2.38-2,0-4.62-.89-4.62-3.58,0-3.23,3.32-3.59,5.93-3.73,3.71-.21,4.17-.41,4.17-1.58,0-1.72-1.14-2.34-3.94-2.34s-4,.71-4.08,2.61Zm9.58,1.84c-.75.48-1.9.57-5.29.89-2,.18-3.12.78-3.12,2.2,0,1.86,1.61,2.41,3.44,2.41,2.29,0,5-1.24,5-3.69Z"></path><path class="cls-1" d="M185.38,87.1c0-2.18-1.1-3.3-3.55-3.3-2.61,0-4.05,1.51-4.05,3.83v7h-1.7V86.6c0-1.52-1.08-2.8-3.39-2.8A3.87,3.87,0,0,0,168.47,88v6.71h-1.69V82.75h1.69V85h.05a4.93,4.93,0,0,1,4.72-2.57c2.68,0,3.92,1.42,4.26,2.61a5.25,5.25,0,0,1,4.68-2.61c3.34,0,4.9,1.7,4.9,4.15v8.13h-1.7Z"></path><path class="cls-1" d="M208.07,87.1c0-2.18-1.1-3.3-3.55-3.3-2.62,0-4.06,1.51-4.06,3.83v7h-1.69V86.6c0-1.52-1.08-2.8-3.4-2.8A3.87,3.87,0,0,0,191.16,88v6.71h-1.7V82.75h1.7V85h0a4.94,4.94,0,0,1,4.72-2.57c2.69,0,3.92,1.42,4.27,2.61a5.24,5.24,0,0,1,4.67-2.61c3.35,0,4.9,1.7,4.9,4.15v8.13h-1.69Z"></path><path class="cls-1" d="M224.64,90.86C224,93,222.16,95,218.22,95c-4.88,0-6.48-3.42-6.48-6.33,0-3.32,2-6.32,6.48-6.32,3.07,0,6.71,1.33,6.71,6.74h-11.5a4.43,4.43,0,0,0,4.79,4.49c2.84,0,4.12-.94,4.72-2.75Zm-1.4-3a5,5,0,0,0-9.81,0Z"></path></g></g></svg> 